<svg version="1.1"
	 xmlns="http://www.w3.org/2000/svg" xmlns:xlink="http://www.w3.org/1999/xlink" xmlns:a="http://ns.adobe.com/AdobeSVGViewerExtensions/3.0/"
	 x="0px" y="0px" width="90.1px" height="26.3px" viewBox="0 0 90.1 26.3" enable-background="new 0 0 90.1 26.3"
	 xml:space="preserve">
<defs>
</defs>
<g>
	<path fill="#4E4E4E" d="M3.3,6.2v19.8H0V0h2.6l16.1,20.2V0.1h3.3v25.9h-2.8L3.3,6.2z"/>
	<path fill="#4E4E4E" d="M26.3,16.4c0-5.4,4-9.9,9.7-9.9c5.8,0,9.5,4.6,9.5,9.7c0,0.5,0,1-0.1,1.2H29.7c0.3,3.8,3.1,6.4,6.4,6.4
		c2.3,0,4.6-1.3,5.4-3.2l2.8,0.8c-1.2,2.8-4.5,4.8-8.3,4.8C30.3,26.3,26.3,21.8,26.3,16.4z M42.5,15.1C42.2,11.5,39.4,9,36.1,9
		s-6.2,2.6-6.4,6.2H42.5z"/>
	<path fill="#4E4E4E" d="M49.6,6.9l5.2,7l0.3,0.6l0.3-0.6l5.2-7H64l-7.1,9.6l7.2,9.5h-3.4l-5.2-7l-0.3-0.5L54.8,19l-5.2,7h-3.4
		l7.2-9.5l-7.1-9.6H49.6z"/>
	<path fill="#4E4E4E" d="M76.8,25c-0.8,0.4-2.6,1.2-4.6,1.2c-2.3,0-4.3-1.2-4.3-4V9.4h-2.6V6.9h2.6V0.5h3.2v6.3h4.3v2.5h-4.3v11.8
		c0.1,1.4,1,2,2.2,2c1.3,0,2.4-0.6,2.8-0.8L76.8,25z"/>
	<path fill="#4DC8F4" d="M90.1,25.9h-4.3V4.8h-5.1V2l9.5-2V25.9z"/>
</g>
</svg>
