<!-- Generator: Adobe Illustrator 18.1.1, SVG Export Plug-In  -->
<svg version="1.1"
	 xmlns="http://www.w3.org/2000/svg" xmlns:xlink="http://www.w3.org/1999/xlink" xmlns:a="http://ns.adobe.com/AdobeSVGViewerExtensions/3.0/"
	 x="0px" y="0px" width="469.8px" height="33.1px" viewBox="0 0 469.8 33.1" enable-background="new 0 0 469.8 33.1"
	 xml:space="preserve">
<defs>
</defs>
<g id="XMLID_1_">
	<g id="XMLID_2_">
		<polygon id="XMLID_5_" fill="#202020" points="0,14.9 17.7,14.9 17.7,32.6 17.7,32.6 0,32.6 0,32.6 		"/>
		<polygon id="XMLID_4_" fill="#202020" points="17.7,0.8 31.8,0.8 31.8,0.8 31.8,14.9 17.7,14.9 		"/>
		<path id="XMLID_3_" fill="#202020" d="M31.8,14.9h11.8l0,0v11.8l0,0H31.8l0,0V14.9z"/>
	</g>
</g>
<g>
	<path fill="#202020" d="M64,6.5h-9.4v-6h25.5v6h-9.3v26H64V6.5z"/>
	<path fill="#202020" d="M96.4,21.2h-5v11.4h-6.8v-32h15c6.7,0,10.8,4.4,10.8,10.3c0,5.7-3.6,8.7-7,9.5l7.2,12.2h-7.8L96.4,21.2z
		 M98.5,6.5h-7.2v8.6h7.2c2.7,0,4.8-1.6,4.8-4.3C103.3,8.2,101.3,6.5,98.5,6.5z"/>
	<path fill="#202020" d="M115.4,0.5h6.9v19c0,4.5,2.6,7.5,7.5,7.5s7.5-3.1,7.5-7.5v-19h7v19.2c0,8-4.7,13.4-14.4,13.4
		c-9.7,0-14.4-5.5-14.4-13.3V0.5z"/>
	<path fill="#202020" d="M150.6,0.5h22.7v6h-15.8v6.8h15.5v6h-15.5v7.2h15.8v6h-22.7V0.5z"/>
	<path fill="#202020" d="M190.9,0.5h12.6c10,0,17,6.4,17,16s-7,16-17,16h-12.6V0.5z M203.5,26.5c6.3,0,10-4.6,10-10
		c0-5.7-3.5-10-10-10h-5.8v20H203.5z"/>
	<path fill="#202020" d="M225.3,0.5h6.8v32h-6.8V0.5z"/>
	<path fill="#202020" d="M240,22.9c2.3,2.4,5.8,4.3,10.2,4.3c3.7,0,5.6-1.7,5.6-3.6c0-2.4-3-3-6.5-3.9c-5.2-1.2-12-2.6-12-9.9
		c0-5.3,4.6-9.7,12.1-9.7c5.1,0,9.3,1.5,12.5,4.5l-3.8,5c-2.6-2.4-6-3.5-9.3-3.5c-2.9,0-4.6,1.3-4.6,3.2c0,2.1,2.9,2.7,6.4,3.6
		c5.3,1.2,12,2.8,12,10.1c0,5.9-4.2,10.3-12.8,10.3c-6.1,0-10.6-2.1-13.5-5.1L240,22.9z"/>
	<path fill="#202020" d="M279.1,21.2h-5v11.4h-6.8v-32h15c6.7,0,10.8,4.4,10.8,10.3c0,5.7-3.6,8.7-7,9.5l7.2,12.2h-7.8L279.1,21.2z
		 M281.3,6.5h-7.2v8.6h7.2c2.7,0,4.8-1.6,4.8-4.3C286.1,8.2,284,6.5,281.3,6.5z"/>
	<path fill="#202020" d="M298.2,0.5h6.9v19c0,4.5,2.6,7.5,7.5,7.5s7.5-3.1,7.5-7.5v-19h7v19.2c0,8-4.7,13.4-14.4,13.4
		c-9.7,0-14.4-5.5-14.4-13.3V0.5z"/>
	<path fill="#202020" d="M333.3,0.5h15c7,0,10.8,4.7,10.8,10.3c0,5.6-3.8,10.3-10.8,10.3h-8.2v11.4h-6.8V0.5z M347.4,6.5h-7.2v8.6
		h7.2c2.7,0,4.7-1.7,4.7-4.3C352.1,8.2,350.1,6.5,347.4,6.5z"/>
	<path fill="#202020" d="M370.7,6.5h-9.4v-6h25.5v6h-9.3v26h-6.9V6.5z"/>
	<path fill="#202020" d="M391.2,0.5h6.8v32h-6.8V0.5z"/>
	<path fill="#202020" d="M419.5,0c9.7,0,16.8,6.9,16.8,16.6s-7.1,16.6-16.8,16.6c-9.6,0-16.7-6.9-16.7-16.6S409.9,0,419.5,0z
		 M419.5,6c-5.9,0-9.7,4.5-9.7,10.5c0,6,3.8,10.5,9.7,10.5c5.9,0,9.7-4.6,9.7-10.5C429.3,10.6,425.4,6,419.5,6z"/>
	<path fill="#202020" d="M447.9,11.7v20.9h-6.8v-32h7l14.8,20.1V0.5h6.8v32h-6.6L447.9,11.7z"/>
</g>
</svg>
