<?xml version="1.0" encoding="utf-8"?>
<!-- Generator: Adobe Illustrator 18.1.1, SVG Export Plug-In . SVG Version: 6.00 Build 0)  -->
<svg version="1.1" id="Layer_1" xmlns="http://www.w3.org/2000/svg" xmlns:xlink="http://www.w3.org/1999/xlink" x="0px" y="0px" width="100px" fill="#000000"
	 viewBox="0 0 147.8 71" enable-background="new 0 0 147.8 71" xml:space="preserve">
<g>
	<g>
		<path d="M58.1,49.5h-20v-3.2l14.1-20.9H38.5v-3.9h19.3v3.2L43.6,45.6h14.6V49.5z"/>
		<path d="M80.5,49.5H64.7v-28h15.8v3.9H69.3V33h10.6v3.8H69.3v8.8h11.3V49.5z"/>
		<path d="M110.7,49.5h-5.6L91.3,27.2h-0.2l0.1,1.2c0.2,2.4,0.3,4.5,0.3,6.5v14.6h-4.2v-28h5.6l13.7,22.2h0.1c0-0.3-0.1-1.4-0.2-3.2
			c-0.1-1.8-0.1-3.3-0.1-4.3V21.5h4.2V49.5z"/>
		<path d="M135.1,30c0,2.9-1,5.2-2.9,6.7c-1.9,1.6-4.6,2.3-8.2,2.3h-2.9v10.5h-4.6v-28h8.1c3.5,0,6.1,0.7,7.9,2.1
			C134.2,25.1,135.1,27.2,135.1,30z M121.1,35.2h2.4c2.3,0,4.1-0.4,5.2-1.2c1.1-0.8,1.6-2.1,1.6-3.8c0-1.6-0.5-2.8-1.5-3.6
			c-1-0.8-2.5-1.2-4.6-1.2h-3.2V35.2z"/>
	</g>
	<polyline fill="none" stroke="#000000" stroke-width="4" stroke-miterlimit="10" points="135.1,7.5 13.5,7.5 13.4,7.5 13.4,63.5 
		13.5,63.5 135.1,63.5 "/>
</g>
</svg>
